# xmcd
#
# Track frame offsets: 
#        150
#        16301
#        42950
#        72560
#        99801
#        116914
#
# Disc length: 1789 seconds
#
# Revision: 0
# Processed by: cddbd v1.5.2PL0 Copyright (c) Steve Scherf et al.
# Submitted via: ExactAudioCopy v1.3
#
DISCID=4a06fb06
DTITLE=Big Mike and The Booty Papas - Keep Your Hand Out My Pocket
DYEAR=2004
DGENRE=Electric Blues
TTITLE0=You Can't Do That
TTITLE1=Keep Your Hand Out My Pocket
TTITLE2=Hey Willie
TTITLE3=Macon Blues
TTITLE4=Look At That Booty
TTITLE5=I'm In Love
EXTD=
EXTT0=
EXTT1=
EXTT2=
EXTT3=
EXTT4=
EXTT5=
PLAYORDER=
